<?xml version="1.0" encoding="utf-8"?>
<!-- Generator: Adobe Illustrator 18.1.1, SVG Export Plug-In . SVG Version: 6.00 Build 0)  -->
<svg version="1.1"
	 id="svg2" sodipodi:docname="pokio.svg" xmlns:dc="http://purl.org/dc/elements/1.1/" xmlns:rdf="http://www.w3.org/1999/02/22-rdf-syntax-ns#" xmlns:sodipodi="http://sodipodi.sourceforge.net/DTD/sodipodi-0.dtd"
	 xmlns:svg="http://www.w3.org/2000/svg" xmlns="http://www.w3.org/2000/svg" xmlns:xlink="http://www.w3.org/1999/xlink" x="0px" y="0px" width="64px" height="64px"
	 viewBox="-273 365 64 64" enable-background="new -273 365 64 64" xml:space="preserve">
	<sodipodi:namedview  fit-margin-bottom="0" fit-margin-right="0" pagecolor="#ffffff" showgrid="false" fit-margin-left="0" fit-margin-top="0" borderopacity="1.0" id="base" bordercolor="#666666">
	</sodipodi:namedview>
<g id="layer1" transform="translate(-13.34375,0.21875)" >

		<path id="outer" sodipodi:ry="23.762377" sodipodi:rx="23.762377" sodipodi:cy="137.5107" sodipodi:cx="139.60396" sodipodi:type="arc" fill="none" stroke="#000000" stroke-width="5" d="
		M-203.9,396.8c0,13.1-10.6,23.8-23.8,23.8c-13.1,0-23.8-10.6-23.8-23.8s10.6-23.8,23.8-23.8S-203.9,383.7-203.9,396.8z"/>

		<path id="inner" sodipodi:ry="23.762377" sodipodi:rx="23.762377" sodipodi:cy="137.5107" sodipodi:cx="139.60396" sodipodi:type="arc" d="
		M-214.1,396.8c0,7.5-6.1,13.6-13.5,13.6s-13.6-6.1-13.6-13.5c0,0,0,0,0,0c0-7.5,6.1-13.6,13.5-13.6
		C-220.2,383.2-214.1,389.3-214.1,396.8C-214.1,396.8-214.1,396.8-214.1,396.8z"/>
</g>
</svg>
